<svg width="150" height="150" viewBox="0 0 150 150" fill="none" xmlns="http://www.w3.org/2000/svg">
<g clip-path="url(#clip0_1547_2728)">
<rect width="150" height="150" rx="75" fill="url(#paint0_linear_1547_2728)"/>
<path d="M78.3301 73.3016L87.5845 14.0971C87.8624 12.0394 88.9015 10.1607 90.4967 8.83172C92.092 7.50274 94.1275 6.82009 96.2015 6.91852C97.4012 6.94991 98.5805 7.23631 99.6609 7.75867C100.741 8.28103 101.698 9.02739 102.468 9.94813C103.238 10.8689 103.803 11.9429 104.125 13.0989C104.448 14.2548 104.521 15.4662 104.339 16.6524L95.2453 77.9274L78.3301 73.3016Z" fill="#E66CA5"/>
<path d="M88.2227 62.4509L96.2021 25.2696C96.2776 24.9588 96.467 24.6878 96.733 24.5102C96.9989 24.3325 97.3219 24.2613 97.6378 24.3107C98.2753 24.4714 98.7548 24.9509 98.5941 25.5884L93.4887 61.9714L88.2227 62.4509Z" fill="#F085B7"/>
<path d="M87.5849 14.1001C87.87 11.9718 88.954 10.0317 90.6171 8.67334C89.1814 18.4073 86.4653 35.6412 82.6376 64.3662L79.6055 64.843L87.5849 14.1001Z" fill="#FFABBB"/>
<path d="M27.7429 230.164L5.0822 120.375C5.01254 120.036 5.01721 119.685 5.0959 119.348C5.17458 119.011 5.32542 118.695 5.53801 118.422C5.7506 118.149 6.01988 117.925 6.32732 117.766C6.63475 117.607 6.97302 117.516 7.31881 117.5H18.4885C19.0412 117.517 19.5735 117.713 20.0054 118.058C20.4372 118.404 20.7452 118.88 20.8831 119.416L43.8599 230.161H27.7429V230.164Z" fill="#6E2B17"/>
<path d="M85.0316 127.077H16.2539V139.189H85.0316V127.077Z" fill="#6E2B17"/>
<path d="M48.0096 12.1851C45.524 13.1855 43.5132 15.0957 42.3865 17.5267C41.2599 19.9577 41.1021 22.7266 41.9453 25.2699L59.1792 75.6967L81.3605 69.1529L61.5739 18.0886C60.5426 15.5193 58.5412 13.4593 56.0027 12.3545C53.4641 11.2497 50.5927 11.1888 48.0096 12.1851Z" fill="#E66CA5"/>
<path d="M65.0848 63.0884L73.8598 61.8107L61.734 31.65C61.5846 31.2001 61.3368 30.7891 61.0087 30.4469C60.6805 30.1047 60.2803 29.84 59.8369 29.672C59.3936 29.5039 58.9184 29.4368 58.4459 29.4755C57.9734 29.5142 57.5155 29.6577 57.1054 29.8956C56.3849 30.2421 55.8121 30.8349 55.4903 31.5668C55.1686 32.2987 55.1192 33.1215 55.3509 33.8866L65.0848 63.0884Z" fill="#F085B7"/>
<path d="M60.2957 63.088L43.2225 16.1729C42.347 17.4989 41.7781 19.0034 41.5571 20.5769C41.3361 22.1504 41.4685 23.7534 41.9448 25.2693L55.0296 63.7255L60.2957 63.088Z" fill="#FFA3B5"/>
<path d="M102.641 55.9875L37.6029 64.4357C35.3794 64.7244 33.2346 65.4483 31.2909 66.566C29.3473 67.6837 27.6427 69.1732 26.2747 70.9497C24.9067 72.7261 23.902 74.7546 23.3179 76.9193C22.7339 79.084 22.5819 81.3426 22.8708 83.566L22.9297 84.0241C23.2185 86.2475 23.9423 88.3923 25.06 90.336C26.1777 92.2797 27.6673 93.9842 29.4437 95.3522C31.2201 96.7203 33.2486 97.725 35.4133 98.309C37.578 98.8931 39.8366 99.045 42.06 98.7562L107.098 90.3107C111.589 89.7268 115.663 87.3835 118.426 83.796C121.188 80.2085 122.413 75.6707 121.831 71.1803L121.772 70.7196C121.483 68.4961 120.759 66.3513 119.641 64.4076C118.524 62.464 117.034 60.7594 115.258 59.3914C113.481 58.0234 111.453 57.0187 109.288 56.4346C107.123 55.8506 104.865 55.6986 102.641 55.9875Z" fill="#FF85AB"/>
<path d="M51.6816 157.237C47.6905 153.728 44.0208 150.375 43.2226 148.939C42.4244 147.503 43.7021 147.343 45.7753 146.544C47.8512 145.746 49.2842 148.299 51.3601 152.29C53.436 156.281 55.1905 160.427 51.6816 157.237Z" fill="#F2C591"/>
<path d="M106.094 114.951L47.8516 124.205C44.0212 127.553 43.6998 128.354 40.9891 130.746C33.1677 137.609 31.0944 143.194 30.9364 149.258C30.4569 157.714 31.2551 157.395 29.498 160.427C27.7435 163.46 25.9891 164.579 27.5855 168.886C28.6771 171.627 30.3044 174.122 32.3721 176.226H124.287C144.872 152.129 126.202 132.503 106.094 114.951Z" fill="#F7E5BC"/>
<path d="M114.713 176.226H52.9561C52.9561 176.226 53.2776 170.802 53.5963 156.919C53.9151 143.036 51.2017 133.46 40.9883 130.749C43.0642 128.673 45.2981 126.437 47.8508 124.205L106.096 115.109C109.927 118.46 113.757 121.811 117.266 125.322C118.141 142.333 117.286 159.388 114.713 176.226Z" fill="#1F3A70"/>
<path d="M106.097 115.109H105.299L104.501 116.068C102.15 124.775 99.0539 133.264 95.2461 141.439C95.2461 141.439 95.5649 144.629 99.872 138.407C104.235 132.284 107.576 125.494 109.767 118.302L106.097 115.109ZM54.3926 124.205C65.7229 137.77 69.5533 140.962 73.7024 143.673C77.8515 146.387 74.3399 142.237 70.0328 135.854C66.8454 131.099 63.7069 126.311 60.6176 121.492L54.3926 124.205Z" fill="#172E5C"/>
<path d="M58.8604 132.184C58.8604 132.184 58.3836 133.301 55.8309 134.898C53.2756 136.492 52.7988 137.29 52.48 136.813C51.5809 134.84 50.2322 133.105 48.5418 131.746C46.8515 130.388 44.8666 129.445 42.7461 128.992C44.3398 127.237 46.0943 125.643 48.0122 123.886C56.7872 127.556 58.8604 132.184 58.8604 132.184Z" fill="#244AB0"/>
<path d="M100.988 114.951L89.1777 158.992L59.1777 116.386L100.988 114.951Z" fill="#D4BF9B"/>
<path d="M75.4562 130.428L97.9562 136.334L89.4999 149.738L75.4562 132.983C73.541 130.749 71.7865 129.472 75.4562 130.428Z" fill="#CCAC89"/>
<path d="M65.7227 123.407L93.17 127.077C96.2021 127.399 96.3602 124.048 97.9566 117.504L68.278 119.738L65.7227 123.407Z" fill="#DE5D98"/>
<path d="M109.42 85.377L42.4822 94.0716C38.2445 94.6215 34.3987 96.8321 31.7907 100.217C29.1826 103.602 28.026 107.885 28.575 112.123C29.1268 116.36 31.339 120.205 34.7251 122.811C38.1111 125.417 42.3938 126.572 46.6313 126.022L113.569 117.327C117.807 116.778 121.653 114.567 124.262 111.182C126.871 107.797 128.028 103.514 127.479 99.2761C126.927 95.0383 124.714 91.1931 121.328 88.5866C117.941 85.98 113.658 84.8255 109.42 85.377Z" fill="#FF85AB"/>
<path d="M112.956 117.343C117.145 116.86 120.989 114.786 123.691 111.549C126.394 108.312 127.749 104.159 127.476 99.951C127.21 96.8338 126.043 93.8612 124.117 91.396C122.191 88.9307 119.588 87.0795 116.628 86.068C118.64 84.1986 120.18 81.8792 121.123 79.3C122.065 76.7207 122.384 73.9548 122.052 71.2287V70.7466C121.797 68.5242 121.099 66.3754 119.999 64.4271C118.9 62.4787 117.422 60.7701 115.652 59.402C113.882 58.034 111.856 57.0342 109.694 56.4616C107.531 55.889 105.276 55.7551 103.061 56.068L50.2422 62.9278C61.5725 70.7493 61.5725 77.4511 59.6574 90.2171C59.5234 92.1618 59.9681 94.1064 60.935 95.8019C63.4984 100.285 64.6135 105.451 64.1278 110.593C63.6421 115.734 61.5792 120.6 58.2217 124.524L112.956 117.346V117.343Z" fill="#F06EA8"/>
<path d="M105.296 159.153L94.2874 167.77C94.1158 167.922 93.9135 168.035 93.6942 168.102C93.4749 168.169 93.2438 168.188 93.0166 168.157C92.7894 168.127 92.5714 168.047 92.3775 167.925C92.1836 167.803 92.0182 167.64 91.8928 167.448L79.2874 150.536C79.0578 150.161 78.9643 149.718 79.0229 149.282C79.0814 148.845 79.2884 148.443 79.6089 148.141L90.7785 139.524C91.1426 139.262 91.5936 139.149 92.0385 139.208C92.4835 139.268 92.8886 139.496 93.1705 139.846L105.618 156.758C105.771 156.929 105.885 157.132 105.952 157.351C106.019 157.571 106.038 157.802 106.008 158.03C105.977 158.257 105.898 158.475 105.775 158.669C105.652 158.863 105.489 159.028 105.296 159.153ZM123.01 159.311L109.764 158.355C109.48 158.321 109.216 158.192 109.014 157.989C108.811 157.787 108.683 157.522 108.65 157.238L109.606 135.056C109.645 134.746 109.797 134.461 110.032 134.255C110.268 134.049 110.571 133.936 110.884 133.94L124.127 134.896C124.437 134.935 124.723 135.086 124.929 135.322C125.135 135.557 125.247 135.861 125.244 136.173L124.287 158.194C124.248 158.504 124.096 158.789 123.861 158.995C123.625 159.201 123.323 159.313 123.01 159.311Z" fill="#BA4E5D"/>
<path d="M123.379 144.337L117.781 137.786L110.844 143.713L116.439 150.265L123.379 144.337Z" fill="#AD3B4B"/>
<path d="M123.169 156.279C123.319 156.243 123.46 156.176 123.583 156.082C123.706 155.989 123.808 155.871 123.883 155.736C123.958 155.601 124.004 155.452 124.018 155.298C124.033 155.145 124.016 154.99 123.967 154.843L118.859 134.577L110.882 133.939C110.57 133.937 110.267 134.049 110.031 134.255C109.796 134.461 109.644 134.746 109.605 135.056L108.648 157.235V157.556C108.771 157.681 108.922 157.775 109.088 157.831C109.254 157.887 109.431 157.903 109.605 157.878L123.169 156.279Z" fill="#872C39"/>
<path d="M121.415 156.121L108.012 157.714C107.742 157.734 107.472 157.667 107.243 157.523C107.013 157.38 106.835 157.167 106.734 156.916L101.307 135.375C101.229 135.15 101.237 134.904 101.33 134.684C101.422 134.465 101.593 134.287 101.808 134.186C101.95 134.119 102.107 134.089 102.264 134.097L115.67 132.343C115.94 132.323 116.209 132.39 116.439 132.533C116.669 132.677 116.847 132.89 116.948 133.141L122.372 154.682C122.42 154.84 122.433 155.007 122.409 155.17C122.385 155.334 122.325 155.49 122.234 155.628C122.142 155.765 122.021 155.881 121.88 155.966C121.738 156.051 121.58 156.104 121.415 156.121Z" fill="#BA4E5D"/>
<path d="M117.25 142.393L110.358 137.223L104.878 144.522L111.77 149.695L117.25 142.395V142.393ZM96.8396 148.62H88.2227V157.746H96.8396V148.62Z" fill="#AD3B4B"/>
<path d="M113.438 153.088L104.499 133.778L102.265 134.1C102.108 134.091 101.95 134.121 101.807 134.187C101.664 134.254 101.54 134.355 101.445 134.481C101.35 134.607 101.288 134.754 101.263 134.91C101.239 135.066 101.254 135.226 101.306 135.375L106.733 156.758L112.637 154.685C112.952 154.575 113.212 154.347 113.361 154.049C113.51 153.751 113.536 153.406 113.435 153.088H113.438ZM93.1688 139.843C92.8864 139.493 92.4806 139.265 92.035 139.205C91.5895 139.146 91.1381 139.26 90.7741 139.524L86.625 142.717L95.242 161.547C95.294 161.663 95.3684 161.767 95.461 161.854C95.5536 161.94 95.6624 162.008 95.7813 162.052C95.9001 162.097 96.0266 162.117 96.1533 162.112C96.28 162.107 96.4046 162.077 96.5196 162.024L105.295 159.152C105.487 159.027 105.649 158.862 105.771 158.668C105.894 158.474 105.973 158.256 106.003 158.029C106.034 157.801 106.015 157.57 105.948 157.351C105.881 157.132 105.768 156.929 105.616 156.758L93.1688 139.843Z" fill="#872C39"/>
<path d="M111.839 155.641L97.3208 160.427C97.0443 160.497 96.7523 160.473 96.4915 160.357C96.2308 160.241 96.0163 160.042 95.8824 159.79L86.6253 139.687C86.3038 139.047 86.6253 138.41 87.4208 138.091L101.786 133.302C102.062 133.233 102.353 133.258 102.613 133.374C102.873 133.489 103.088 133.688 103.222 133.939L112.479 154.044C112.598 154.262 112.642 154.513 112.602 154.757C112.562 155.002 112.441 155.226 112.259 155.394C112.139 155.507 111.995 155.591 111.839 155.641Z" fill="#BA4E5D"/>
<path d="M116.465 147.185C121.891 149.895 129.391 154.363 129.391 154.363C130.677 155.17 131.753 156.27 132.53 157.574C133.307 158.878 133.762 160.348 133.859 161.863V163.302C133.902 164.572 133.691 165.838 133.239 167.026C132.787 168.214 132.103 169.3 131.227 170.221C130.351 171.142 129.3 171.879 128.136 172.389C126.972 172.899 125.718 173.173 124.447 173.194C124.125 173.354 123.807 173.194 123.488 173.194C122.222 173.081 120.995 172.694 119.893 172.06C118.791 171.427 117.84 170.561 117.105 169.524C115.374 167.139 113.452 164.897 111.359 162.822C110.242 161.705 107.213 159.948 106.254 158.992C103.064 155.483 103.701 153.886 106.254 149.895C108.807 145.904 110.403 144.153 116.467 147.185H116.465Z" fill="#F57FB5"/>
<path d="M79.5809 89.3139C80.9684 88.2237 80.8103 85.7139 79.23 83.7049C77.6496 81.696 75.2443 80.9514 73.8594 82.0416C72.4746 83.1317 72.6327 85.6442 74.213 87.6505C75.7934 89.6594 78.1987 90.4041 79.5835 89.3139H79.5809ZM106.15 80.938C106.578 78.6076 105.595 76.4701 103.953 76.1701C102.311 75.8675 100.634 77.5148 100.206 79.8451C99.7773 82.1782 100.76 84.313 102.402 84.613C104.044 84.9157 105.721 83.2683 106.15 80.938Z" fill="#1E1C2B"/>
<path d="M87.7422 95.0035L91.894 97.7169C92.5416 98.1308 93.2699 98.4024 94.0305 98.5135C94.791 98.6247 95.5665 98.5729 96.3056 98.3617C97.0446 98.1505 97.7303 97.7846 98.3173 97.2883C98.9042 96.792 99.3789 96.1766 99.71 95.4829L100.988 92.7695" stroke="#BA4173" stroke-width="2" stroke-miterlimit="10" stroke-linecap="round"/>
<path d="M37.6371 95.483C33.8067 94.5241 29.1808 93.2491 27.2656 93.0884C29.0884 95.1927 31.3855 96.8334 33.9674 97.875L33.3272 98.5152L43.2219 98.033C46.7308 97.5562 45.2978 97.2375 37.6371 95.483Z" fill="#F071AB"/>
<path d="M33.9543 75.0347C36.4641 72.3159 37.6587 69.3347 36.6221 68.3784C35.5855 67.4222 32.7114 68.8525 30.2016 71.5713C27.6918 74.2927 26.4971 77.2739 27.5337 78.2302C28.5704 79.1838 31.4445 77.7561 33.9543 75.0347Z" fill="#FFA1BD"/>
<path d="M33.3306 158.992L42.1056 155.322C43.8601 154.685 42.2663 154.044 38.2752 152.29C34.2868 150.536 33.4886 149.895 33.1699 153.407C32.8485 156.916 31.5735 159.629 33.3306 158.992Z" fill="#FAD596"/>
<path d="M55.0293 157.077C56.7864 148.141 56.6257 145.746 57.2632 145.588C57.9034 145.428 59.4972 147.664 60.7748 150.375C62.0525 153.088 55.0293 157.077 55.0293 157.077Z" fill="#172E5C"/>
<path d="M133.86 161.866C133.763 160.351 133.308 158.881 132.531 157.577C131.754 156.273 130.678 155.172 129.392 154.366C129.392 154.366 123.328 150.696 118.222 148.141C115.219 150.865 112.733 154.109 110.883 157.717C110.223 158.846 109.789 160.092 109.605 161.387L111.521 162.822C113.575 164.933 115.494 167.171 117.266 169.524C118.375 171.075 119.935 172.245 121.734 172.875C123.89 173.491 126.188 173.379 128.275 172.556C130.069 171.718 131.565 170.352 132.563 168.642C133.56 166.931 134.013 164.957 133.86 162.983V161.866Z" fill="#F073AB"/>
<path d="M106.207 144.464L98.5084 140.59L94.4102 148.747L102.106 152.617L106.207 144.464Z" fill="#AD3B4B"/>
<path d="M11.7864 121.811C13.3521 121.811 14.8537 121.189 15.9608 120.081C17.068 118.974 17.69 117.473 17.69 115.907C17.69 114.341 17.068 112.84 15.9608 111.733C14.8537 110.625 13.3521 110.003 11.7864 110.003C10.2207 110.003 8.71906 110.625 7.61193 111.733C6.50479 112.84 5.88281 114.341 5.88281 115.907C5.88281 117.473 6.50479 118.974 7.61193 120.081C8.71906 121.189 10.2207 121.811 11.7864 121.811Z" fill="#6E2B17"/>
</g>
<defs>
<linearGradient id="paint0_linear_1547_2728" x1="75" y1="150.68" x2="75" y2="43.2348" gradientUnits="userSpaceOnUse">
<stop stop-color="#7196FF"/>
<stop offset="1" stop-color="#2A5EE8"/>
</linearGradient>
<clipPath id="clip0_1547_2728">
<rect width="150" height="150" rx="75" fill="white"/>
</clipPath>
</defs>
</svg>
